<?xml version="1.0" encoding="UTF-8"?> <svg xmlns="http://www.w3.org/2000/svg" xmlns:xlink="http://www.w3.org/1999/xlink" xmlns:xodm="http://www.corel.com/coreldraw/odm/2003" xml:space="preserve" width="35.6695mm" height="15.5988mm" version="1.1" style="shape-rendering:geometricPrecision; text-rendering:geometricPrecision; image-rendering:optimizeQuality; fill-rule:evenodd; clip-rule:evenodd" viewBox="0 0 3766.94 1647.34"> <defs> <style type="text/css"> .fil0 {fill:#00AFAA;fill-rule:nonzero} </style> </defs> <g id="Слой_x0020_1"> <metadata id="CorelCorpID_0Corel-Layer"></metadata> <path class="fil0" d="M373.39 1545.93c68.87,-15.25 130.86,-65.16 159.65,-128.46 -20.92,54.96 -67.02,101.91 -121.89,128.46l15.63 0c50.63,-30.94 91.92,-77.81 109.4,-130.16l1.25 -3.91c30.98,-93.16 122.75,-123.49 204.97,-67.82l-37.93 -25.66c82.11,55.78 179.43,27.34 217.02,-63.13l41.9 -101.08c37.93,-90.58 111.07,-96.38 163.76,-13.16l3.85 6.36c52.7,83.33 119.25,75.18 148.66,-18.51l104.48 -332.54c29.31,-93.48 85.98,-96.82 126.3,-7.24l146.15 324.94c40.19,89.59 126.39,102.97 192.84,29.24l117.19 -130.18c66.22,-73.41 173.98,-73.75 240.18,-0.78l99.94 109.77c66.44,73.06 196.01,103.19 288.46,67.7l37.12 -14.17c92.8,-35.58 235.55,-20.64 318.67,33.36l71.9 46.52c83.34,54 150.8,177.48 150.8,275.33l0 15.13 103.02 0 0 -9.12 0 -96.83c0,-97.94 -61.45,-228.79 -137.4,-292.16l-110.4 -92.03c-75.98,-63.48 -209.77,-79.09 -298.78,-35.24l-62.92 31c-88.7,43.73 -207.47,14.29 -264.49,-66.26l-145.47 -205.27c-57.12,-80.53 -149.12,-80.19 -205.66,0.45l-163.88 233.59c-56.34,80.65 -128.56,71.06 -161.15,-21.53l-184.08 -526.42c-32.6,-92.7 -77.68,-90.58 -100.86,4.58l-99.42 406.43 156.33 -803.9c18.73,-96.39 55.19,-97.83 81.66,-3.01l216.34 777.53c26.35,94.6 86.42,101.74 134.34,15.84l207.59 -372.47c47.91,-85.9 125.95,-85.9 174.32,-0.12l188.52 334.66c48.27,85.9 156.04,113.01 240.41,60.69l92.46 -57.33c84.49,-52.33 208.37,-36.72 276.4,34.58l151.61 159.08c68.02,71.39 123.21,208.72 123.21,306.54l0 187.08 0 29.64 330.23 0c28.39,0 51.34,22.76 51.34,50.77 0,27.88 -22.95,50.64 -51.34,50.64l-3664.02 0c-28.4,0 -51.58,-22.76 -51.58,-50.64 0,-28.01 23.18,-50.77 51.58,-50.77l321.82 0zm106.44 0l2522.21 0 -59 -86.88c-100.74,-148.02 -319.12,-215.63 -487.88,-151.26l0 0 -86.76 33.24c-39.76,15.17 -95.5,2.34 -124.47,-28.67l0 0 -109.37 -117.24c-67.23,-72.06 -179.43,-74.51 -249.96,-5.24l0 0 -152.96 150.37c-29.88,29.34 -67.23,21.87 -82.9,-17.29l0 0 -84.38 -212.07c-32.94,-82.79 -76.23,-124.21 -119.53,-124.2l0 0c-43.29,0.01 -86.61,41.4 -119.64,124.2l-84.26 212.07c-15.67,39.16 -54.51,48.41 -86.65,20.75l0 0 -89.83 -77.09c-32.02,-27.67 -79.94,-23.53 -106.64,9.26l0 0 -109.7 134.64c-26.42,32.63 -74.45,37.55 -107.37,11.23l0 0 1.72 1.39c-54.59,-43.35 -134.05,-34.97 -178.36,19.18l0 0 -84.27 103.61zm260.91 -124.18l-0.5 -0.4c0.16,0.14 0.34,0.27 0.5,0.4l0 0zm-188.14 -75.17l43.4 -210.7c19.76,-95.93 89.93,-114.45 156.38,-41.61l35.89 39.5c66.65,72.95 140.57,55 164.89,-40.05l101.86 -396.13c24.64,-95.05 73.25,-98.28 109.25,-6.47l78.14 200.24c31.54,80.42 69.4,87.35 90.83,22.24l-25.31 103.48c-23.28,95.27 -77.45,100.72 -120.72,12.49l-43.83 -89.24c-43.38,-88.24 -103.11,-84.22 -133.43,9.15l-74.97 231.57c-30.19,93.38 -115.14,116.24 -189.98,51.09l2.39 2.12c-74.61,-65.15 -155.14,-40.94 -179.66,53.88l-15.13 58.42z"></path> </g> </svg> 